<svg width="15" height="14" viewBox="0 0 15 14" fill="none" xmlns="http://www.w3.org/2000/svg">
<path d="M7.50008 2.33341C10.0732 2.33341 12.1667 4.427 12.1667 7.00008C12.1667 9.57316 10.0732 11.6667 7.50008 11.6667C4.927 11.6667 2.83341 9.57316 2.83341 7.00008C2.83341 4.427 4.927 2.33341 7.50008 2.33341ZM7.50008 1.16675C4.27833 1.16675 1.66675 3.77833 1.66675 7.00008C1.66675 10.2218 4.27833 12.8334 7.50008 12.8334C10.7218 12.8334 13.3334 10.2218 13.3334 7.00008C13.3334 3.77833 10.7218 1.16675 7.50008 1.16675ZM10.4167 6.41675H8.08341V4.08341H6.91675V6.41675H4.58341V7.58341H6.91675V9.91675H8.08341V7.58341H10.4167V6.41675Z" fill="#007AFF"/>
</svg>
