<svg width="25" height="25" viewBox="0 0 25 25" fill="none" xmlns="http://www.w3.org/2000/svg">
<path d="M7.70002 12.5001C7.70002 13.8256 6.62551 14.9001 5.30002 14.9001C3.97454 14.9001 2.90002 13.8256 2.90002 12.5001C2.90002 11.1746 3.97454 10.1001 5.30002 10.1001C6.62551 10.1001 7.70002 11.1746 7.70002 12.5001Z" stroke="#C3F300" stroke-width="2"/>
<path d="M14.9 12.5001C14.9 13.8256 13.8255 14.9001 12.5 14.9001C11.1745 14.9001 10.1 13.8256 10.1 12.5001C10.1 11.1746 11.1745 10.1001 12.5 10.1001C13.8255 10.1001 14.9 11.1746 14.9 12.5001Z" stroke="#C3F300" stroke-width="2"/>
<path d="M22.1 12.5001C22.1 13.8256 21.0255 14.9001 19.7 14.9001C18.3745 14.9001 17.3 13.8256 17.3 12.5001C17.3 11.1746 18.3745 10.1001 19.7 10.1001C21.0255 10.1001 22.1 11.1746 22.1 12.5001Z" stroke="#C3F300" stroke-width="2"/>
</svg>
