<svg width="9" height="9" viewBox="0 0 9 9" fill="none" xmlns="http://www.w3.org/2000/svg">
<path fill-rule="evenodd" clip-rule="evenodd" d="M0.378117 5.57866C0.386818 5.5229 0.413053 5.47136 0.45302 5.43151L5.80676 0.0777685C5.85657 0.0279733 5.92412 0 5.99455 0C6.06498 0 6.13253 0.0279733 6.18234 0.0777685L8.24883 2.14426C8.29846 2.19404 8.32633 2.26148 8.32633 2.33178C8.32633 2.40208 8.29846 2.46952 8.24883 2.5193L2.89402 7.87358C2.85411 7.91335 2.80257 7.93939 2.74687 7.94795L0.305869 8.323C0.264656 8.32932 0.222534 8.32584 0.182912 8.31286C0.143289 8.29988 0.10728 8.27775 0.077797 8.24827C0.0483142 8.21879 0.0261863 8.18278 0.0132038 8.14315C0.000221418 8.10353 -0.00325089 8.06141 0.003068 8.0202L0.377586 5.57972L0.378117 5.57866ZM0.890223 5.74547L0.583703 7.74289L2.5806 7.43584L7.68466 2.33178L5.99482 0.641404L0.890223 5.74547Z" fill="black"/>
<path fill-rule="evenodd" clip-rule="evenodd" d="M6.50213 3.65736L4.62317 1.78212L4.99875 1.40601L6.87718 3.28125L6.50213 3.65736Z" fill="black"/>
</svg>
