<svg width="39" height="38" viewBox="0 0 39 38" fill="none" xmlns="http://www.w3.org/2000/svg">
<rect x="0.5" width="38" height="38" rx="19" fill="#EDE9E9"/>
<path d="M14.7 19.0001C14.7 20.3256 13.6255 21.4001 12.3 21.4001C10.9745 21.4001 9.90002 20.3256 9.90002 19.0001C9.90002 17.6746 10.9745 16.6001 12.3 16.6001C13.6255 16.6001 14.7 17.6746 14.7 19.0001Z" stroke="#132050" stroke-width="2"/>
<path d="M21.9 19.0001C21.9 20.3256 20.8255 21.4001 19.5 21.4001C18.1745 21.4001 17.1 20.3256 17.1 19.0001C17.1 17.6746 18.1745 16.6001 19.5 16.6001C20.8255 16.6001 21.9 17.6746 21.9 19.0001Z" stroke="#132050" stroke-width="2"/>
<path d="M29.1 19.0001C29.1 20.3256 28.0255 21.4001 26.7 21.4001C25.3745 21.4001 24.3 20.3256 24.3 19.0001C24.3 17.6746 25.3745 16.6001 26.7 16.6001C28.0255 16.6001 29.1 17.6746 29.1 19.0001Z" stroke="#132050" stroke-width="2"/>
</svg>
