<svg width="18" height="17" viewBox="0 0 18 17" fill="none" xmlns="http://www.w3.org/2000/svg">
<path d="M16.2593 2.2002L15.1221 1.05469L15.728 0.457031C16.002 0.191406 16.4087 0.158203 16.666 0.415527L16.8569 0.614746C17.1392 0.888672 17.1392 1.28711 16.8569 1.58594L16.2593 2.2002ZM6.27344 11.2563C6.11572 11.3228 5.94971 11.1318 6.01611 10.9907L6.76318 9.43018L14.5078 1.68555L15.645 2.80615L7.89209 10.5508L6.27344 11.2563ZM3.25195 16.6353C1.52539 16.6353 0.645508 15.7803 0.645508 14.062V4.49951C0.645508 2.78955 1.52539 1.92627 3.25195 1.92627H12.1753L10.8389 3.2627H3.27686C2.44678 3.2627 1.98193 3.71094 1.98193 4.57422V13.9956C1.98193 14.8589 2.44678 15.2988 3.27686 15.2988H12.9805C13.5532 15.2988 14.0181 14.8589 14.0181 13.9956V6.5249L15.3545 5.18848V14.062C15.3545 15.772 14.4912 16.6353 12.9971 16.6353H3.25195Z" fill="#007AFF"/>
</svg>
