<svg width="16" height="19" viewBox="0 0 16 19" fill="none" xmlns="http://www.w3.org/2000/svg">
<path d="M7.9917 12.2646C7.63477 12.2646 7.33594 11.9658 7.33594 11.6172V3.09229L7.38574 1.84717L6.82129 2.43652L5.56787 3.78125C5.45166 3.91406 5.26904 3.98047 5.11133 3.98047C4.7627 3.98047 4.51367 3.73145 4.51367 3.39111C4.51367 3.2168 4.58008 3.08398 4.70459 2.95947L7.51025 0.253418C7.68457 0.0874023 7.82568 0.0292969 7.9917 0.0292969C8.16602 0.0292969 8.30713 0.0874023 8.47314 0.253418L11.2788 2.95947C11.4033 3.08398 11.478 3.2168 11.478 3.39111C11.478 3.73145 11.2124 3.98047 10.8721 3.98047C10.7061 3.98047 10.54 3.91406 10.4238 3.78125L9.16211 2.43652L8.60596 1.84717L8.65576 3.09229V11.6172C8.65576 11.9658 8.34863 12.2646 7.9917 12.2646ZM3.23535 18.7642C1.50049 18.7642 0.628906 17.9009 0.628906 16.1909V7.90674C0.628906 6.19678 1.50049 5.3335 3.23535 5.3335H5.55127V6.66992H3.25195C2.42188 6.66992 1.96533 7.11816 1.96533 7.98145V16.1162C1.96533 16.9795 2.42188 17.4277 3.25195 17.4277H12.7314C13.5532 17.4277 14.0264 16.9795 14.0264 16.1162V7.98145C14.0264 7.11816 13.5532 6.66992 12.7314 6.66992H10.4404V5.3335H12.7563C14.4912 5.3335 15.3628 6.19678 15.3628 7.90674V16.1909C15.3628 17.9009 14.4912 18.7642 12.7563 18.7642H3.23535Z" fill="#007AFF"/>
</svg>
